<mxfile host="Electron" modified="2024-06-09T20:47:36.665Z" agent="Mozilla/5.0 (Windows NT 10.0; Win64; x64) AppleWebKit/537.36 (KHTML, like Gecko) draw.io/22.0.3 Chrome/114.0.5735.289 Electron/25.8.4 Safari/537.36" etag="eY1xml353PecLaL9pDmU" version="22.0.3" type="device">
  <diagram name="第 1 页" id="XMlzAsniAcXtD7ddfIsU">
    <mxGraphModel dx="1206" dy="857" grid="1" gridSize="10" guides="1" tooltips="1" connect="1" arrows="1" fold="1" page="1" pageScale="1" pageWidth="827" pageHeight="1169" math="0" shadow="0">
      <root>
        <mxCell id="0" />
        <mxCell id="1" parent="0" />
        <mxCell id="sbDxYOO8sf8kgl_lCNj2-15" style="edgeStyle=orthogonalEdgeStyle;rounded=0;orthogonalLoop=1;jettySize=auto;html=1;entryX=0.112;entryY=0.002;entryDx=0;entryDy=0;exitX=0.549;exitY=1.002;exitDx=0;exitDy=0;exitPerimeter=0;entryPerimeter=0;" parent="1" source="sbDxYOO8sf8kgl_lCNj2-3" target="sbDxYOO8sf8kgl_lCNj2-4" edge="1">
          <mxGeometry relative="1" as="geometry" />
        </mxCell>
        <mxCell id="sbDxYOO8sf8kgl_lCNj2-18" value="用户对局信息与身份信息" style="edgeLabel;html=1;align=center;verticalAlign=middle;resizable=0;points=[];" parent="sbDxYOO8sf8kgl_lCNj2-15" vertex="1" connectable="0">
          <mxGeometry x="-0.1989" y="1" relative="1" as="geometry">
            <mxPoint as="offset" />
          </mxGeometry>
        </mxCell>
        <mxCell id="sbDxYOO8sf8kgl_lCNj2-3" value="&lt;span style=&quot;font-size: 30px;&quot;&gt;用户界面&lt;/span&gt;" style="rounded=0;whiteSpace=wrap;html=1;" parent="1" vertex="1">
          <mxGeometry x="490" y="440" width="500" height="320" as="geometry" />
        </mxCell>
        <mxCell id="sbDxYOO8sf8kgl_lCNj2-4" value="&lt;font style=&quot;font-size: 30px;&quot;&gt;数据库适配器&lt;/font&gt;" style="rounded=0;whiteSpace=wrap;html=1;" parent="1" vertex="1">
          <mxGeometry x="720" y="840" width="400" height="60" as="geometry" />
        </mxCell>
        <mxCell id="sbDxYOO8sf8kgl_lCNj2-5" value="&lt;font style=&quot;font-size: 20px;&quot;&gt;SQLite&lt;/font&gt;" style="shape=cylinder3;whiteSpace=wrap;html=1;boundedLbl=1;backgroundOutline=1;size=15;" parent="1" vertex="1">
          <mxGeometry x="1010" y="1000" width="100" height="85" as="geometry" />
        </mxCell>
        <mxCell id="sbDxYOO8sf8kgl_lCNj2-6" value="&lt;font style=&quot;font-size: 20px;&quot;&gt;SharePreference&lt;/font&gt;" style="shape=cylinder3;whiteSpace=wrap;html=1;boundedLbl=1;backgroundOutline=1;size=15;" parent="1" vertex="1">
          <mxGeometry x="740" y="1000" width="150" height="90" as="geometry" />
        </mxCell>
        <mxCell id="sbDxYOO8sf8kgl_lCNj2-2" value="&lt;font style=&quot;font-size: 30px;&quot;&gt;游戏运行模块&lt;/font&gt;" style="rounded=0;whiteSpace=wrap;html=1;" parent="1" vertex="1">
          <mxGeometry x="620" y="260" width="500" height="90" as="geometry" />
        </mxCell>
        <mxCell id="sbDxYOO8sf8kgl_lCNj2-7" value="&lt;font style=&quot;font-size: 30px;&quot;&gt;BackendCloud&lt;/font&gt;" style="rounded=0;whiteSpace=wrap;html=1;" parent="1" vertex="1">
          <mxGeometry x="60" y="460" width="330" height="240" as="geometry" />
        </mxCell>
        <mxCell id="sbDxYOO8sf8kgl_lCNj2-8" value="&lt;font style=&quot;font-size: 16px;&quot;&gt;BotRunningSystem&lt;/font&gt;" style="rounded=0;whiteSpace=wrap;html=1;" parent="1" vertex="1">
          <mxGeometry x="70" y="610" width="150" height="60" as="geometry" />
        </mxCell>
        <mxCell id="sbDxYOO8sf8kgl_lCNj2-9" value="&lt;font style=&quot;font-size: 16px;&quot;&gt;MatchingSystem&lt;/font&gt;" style="rounded=0;whiteSpace=wrap;html=1;" parent="1" vertex="1">
          <mxGeometry x="70" y="480" width="150" height="60" as="geometry" />
        </mxCell>
        <mxCell id="sbDxYOO8sf8kgl_lCNj2-10" value="&lt;font style=&quot;font-size: 20px;&quot;&gt;SenstiveWord&lt;/font&gt;" style="rounded=0;whiteSpace=wrap;html=1;" parent="1" vertex="1">
          <mxGeometry x="80" y="340" width="220" height="60" as="geometry" />
        </mxCell>
        <mxCell id="sbDxYOO8sf8kgl_lCNj2-11" value="&lt;font style=&quot;font-size: 16px;&quot;&gt;回放模块&lt;/font&gt;" style="rounded=0;whiteSpace=wrap;html=1;" parent="1" vertex="1">
          <mxGeometry x="540" y="460" width="120" height="60" as="geometry" />
        </mxCell>
        <mxCell id="sbDxYOO8sf8kgl_lCNj2-12" value="&lt;font style=&quot;font-size: 16px;&quot;&gt;敏感词模块&lt;/font&gt;" style="rounded=0;whiteSpace=wrap;html=1;" parent="1" vertex="1">
          <mxGeometry x="540" y="650" width="120" height="60" as="geometry" />
        </mxCell>
        <mxCell id="sbDxYOO8sf8kgl_lCNj2-13" value="&lt;font style=&quot;font-size: 16px;&quot;&gt;排行榜模块&lt;/font&gt;" style="rounded=0;whiteSpace=wrap;html=1;" parent="1" vertex="1">
          <mxGeometry x="820" y="460" width="120" height="60" as="geometry" />
        </mxCell>
        <mxCell id="sbDxYOO8sf8kgl_lCNj2-14" value="&lt;font style=&quot;font-size: 16px;&quot;&gt;Bot模块&lt;/font&gt;" style="rounded=0;whiteSpace=wrap;html=1;" parent="1" vertex="1">
          <mxGeometry x="820" y="650" width="120" height="60" as="geometry" />
        </mxCell>
        <mxCell id="sbDxYOO8sf8kgl_lCNj2-16" style="edgeStyle=orthogonalEdgeStyle;rounded=0;orthogonalLoop=1;jettySize=auto;html=1;entryX=0.86;entryY=1.006;entryDx=0;entryDy=0;entryPerimeter=0;" parent="1" source="sbDxYOO8sf8kgl_lCNj2-4" target="sbDxYOO8sf8kgl_lCNj2-3" edge="1">
          <mxGeometry relative="1" as="geometry" />
        </mxCell>
        <mxCell id="sbDxYOO8sf8kgl_lCNj2-17" value="用户配置信息" style="edgeLabel;html=1;align=center;verticalAlign=middle;resizable=0;points=[];" parent="sbDxYOO8sf8kgl_lCNj2-16" vertex="1" connectable="0">
          <mxGeometry x="-0.1277" y="-1" relative="1" as="geometry">
            <mxPoint as="offset" />
          </mxGeometry>
        </mxCell>
        <mxCell id="sbDxYOO8sf8kgl_lCNj2-19" value="" style="endArrow=classic;html=1;rounded=0;exitX=0.801;exitY=-0.036;exitDx=0;exitDy=0;exitPerimeter=0;entryX=0.835;entryY=1;entryDx=0;entryDy=0;entryPerimeter=0;" parent="1" source="sbDxYOO8sf8kgl_lCNj2-4" target="sbDxYOO8sf8kgl_lCNj2-2" edge="1">
          <mxGeometry width="50" height="50" relative="1" as="geometry">
            <mxPoint x="1050" y="730" as="sourcePoint" />
            <mxPoint x="1100" y="680" as="targetPoint" />
          </mxGeometry>
        </mxCell>
        <mxCell id="sbDxYOO8sf8kgl_lCNj2-52" value="配置信息" style="edgeLabel;html=1;align=center;verticalAlign=middle;resizable=0;points=[];" parent="sbDxYOO8sf8kgl_lCNj2-19" vertex="1" connectable="0">
          <mxGeometry x="-0.0276" y="1" relative="1" as="geometry">
            <mxPoint as="offset" />
          </mxGeometry>
        </mxCell>
        <mxCell id="sbDxYOO8sf8kgl_lCNj2-20" value="" style="endArrow=classic;html=1;rounded=0;exitX=0.911;exitY=1.031;exitDx=0;exitDy=0;exitPerimeter=0;entryX=0.896;entryY=-0.028;entryDx=0;entryDy=0;entryPerimeter=0;" parent="1" source="sbDxYOO8sf8kgl_lCNj2-2" target="sbDxYOO8sf8kgl_lCNj2-4" edge="1">
          <mxGeometry width="50" height="50" relative="1" as="geometry">
            <mxPoint x="1090" y="520" as="sourcePoint" />
            <mxPoint x="1140" y="470" as="targetPoint" />
          </mxGeometry>
        </mxCell>
        <mxCell id="sbDxYOO8sf8kgl_lCNj2-54" value="对局记录" style="edgeLabel;html=1;align=center;verticalAlign=middle;resizable=0;points=[];" parent="sbDxYOO8sf8kgl_lCNj2-20" vertex="1" connectable="0">
          <mxGeometry x="0.2648" y="1" relative="1" as="geometry">
            <mxPoint x="12" as="offset" />
          </mxGeometry>
        </mxCell>
        <mxCell id="sbDxYOO8sf8kgl_lCNj2-21" value="" style="endArrow=classic;html=1;rounded=0;exitX=0.536;exitY=0;exitDx=0;exitDy=0;exitPerimeter=0;entryX=0.277;entryY=1.026;entryDx=0;entryDy=0;entryPerimeter=0;" parent="1" source="sbDxYOO8sf8kgl_lCNj2-3" target="sbDxYOO8sf8kgl_lCNj2-2" edge="1">
          <mxGeometry width="50" height="50" relative="1" as="geometry">
            <mxPoint x="750" y="520" as="sourcePoint" />
            <mxPoint x="758" y="360" as="targetPoint" />
          </mxGeometry>
        </mxCell>
        <mxCell id="sbDxYOO8sf8kgl_lCNj2-51" value="各项数据反馈" style="edgeLabel;html=1;align=center;verticalAlign=middle;resizable=0;points=[];" parent="sbDxYOO8sf8kgl_lCNj2-21" vertex="1" connectable="0">
          <mxGeometry x="0.0686" relative="1" as="geometry">
            <mxPoint as="offset" />
          </mxGeometry>
        </mxCell>
        <mxCell id="sbDxYOO8sf8kgl_lCNj2-22" value="" style="endArrow=classic;html=1;rounded=0;entryX=0.779;entryY=0.003;entryDx=0;entryDy=0;entryPerimeter=0;" parent="1" target="sbDxYOO8sf8kgl_lCNj2-3" edge="1">
          <mxGeometry width="50" height="50" relative="1" as="geometry">
            <mxPoint x="880" y="350" as="sourcePoint" />
            <mxPoint x="800" y="470" as="targetPoint" />
          </mxGeometry>
        </mxCell>
        <mxCell id="sbDxYOO8sf8kgl_lCNj2-50" value="实时界面" style="edgeLabel;html=1;align=center;verticalAlign=middle;resizable=0;points=[];" parent="sbDxYOO8sf8kgl_lCNj2-22" vertex="1" connectable="0">
          <mxGeometry x="-0.2526" y="1" relative="1" as="geometry">
            <mxPoint as="offset" />
          </mxGeometry>
        </mxCell>
        <mxCell id="sbDxYOO8sf8kgl_lCNj2-31" style="edgeStyle=orthogonalEdgeStyle;rounded=0;orthogonalLoop=1;jettySize=auto;html=1;entryX=0.236;entryY=1.016;entryDx=0;entryDy=0;entryPerimeter=0;" parent="1" source="sbDxYOO8sf8kgl_lCNj2-6" target="sbDxYOO8sf8kgl_lCNj2-4" edge="1">
          <mxGeometry relative="1" as="geometry" />
        </mxCell>
        <mxCell id="sbDxYOO8sf8kgl_lCNj2-35" value="用户信息" style="edgeLabel;html=1;align=center;verticalAlign=middle;resizable=0;points=[];" parent="sbDxYOO8sf8kgl_lCNj2-31" vertex="1" connectable="0">
          <mxGeometry x="0.0036" y="-3" relative="1" as="geometry">
            <mxPoint x="3" y="2" as="offset" />
          </mxGeometry>
        </mxCell>
        <mxCell id="sbDxYOO8sf8kgl_lCNj2-32" style="edgeStyle=orthogonalEdgeStyle;rounded=0;orthogonalLoop=1;jettySize=auto;html=1;entryX=0.855;entryY=0;entryDx=0;entryDy=4.35;entryPerimeter=0;" parent="1" source="sbDxYOO8sf8kgl_lCNj2-4" target="sbDxYOO8sf8kgl_lCNj2-6" edge="1">
          <mxGeometry relative="1" as="geometry" />
        </mxCell>
        <mxCell id="sbDxYOO8sf8kgl_lCNj2-36" value="最新用户信息" style="edgeLabel;html=1;align=center;verticalAlign=middle;resizable=0;points=[];" parent="sbDxYOO8sf8kgl_lCNj2-32" vertex="1" connectable="0">
          <mxGeometry x="0.5952" y="2" relative="1" as="geometry">
            <mxPoint as="offset" />
          </mxGeometry>
        </mxCell>
        <mxCell id="sbDxYOO8sf8kgl_lCNj2-33" style="edgeStyle=orthogonalEdgeStyle;rounded=0;orthogonalLoop=1;jettySize=auto;html=1;entryX=0.145;entryY=0;entryDx=0;entryDy=4.35;entryPerimeter=0;" parent="1" source="sbDxYOO8sf8kgl_lCNj2-4" target="sbDxYOO8sf8kgl_lCNj2-5" edge="1">
          <mxGeometry relative="1" as="geometry">
            <Array as="points">
              <mxPoint x="920" y="950" />
              <mxPoint x="1025" y="950" />
              <mxPoint x="1025" y="989" />
            </Array>
          </mxGeometry>
        </mxCell>
        <mxCell id="sbDxYOO8sf8kgl_lCNj2-37" value="最新对局信息" style="edgeLabel;html=1;align=center;verticalAlign=middle;resizable=0;points=[];" parent="sbDxYOO8sf8kgl_lCNj2-33" vertex="1" connectable="0">
          <mxGeometry x="0.0922" y="-3" relative="1" as="geometry">
            <mxPoint as="offset" />
          </mxGeometry>
        </mxCell>
        <mxCell id="sbDxYOO8sf8kgl_lCNj2-34" style="edgeStyle=orthogonalEdgeStyle;rounded=0;orthogonalLoop=1;jettySize=auto;html=1;entryX=0.849;entryY=1.025;entryDx=0;entryDy=0;entryPerimeter=0;" parent="1" source="sbDxYOO8sf8kgl_lCNj2-5" target="sbDxYOO8sf8kgl_lCNj2-4" edge="1">
          <mxGeometry relative="1" as="geometry" />
        </mxCell>
        <mxCell id="sbDxYOO8sf8kgl_lCNj2-38" value="对局信息" style="edgeLabel;html=1;align=center;verticalAlign=middle;resizable=0;points=[];" parent="sbDxYOO8sf8kgl_lCNj2-34" vertex="1" connectable="0">
          <mxGeometry x="0.0111" y="-3" relative="1" as="geometry">
            <mxPoint y="-2" as="offset" />
          </mxGeometry>
        </mxCell>
        <mxCell id="sbDxYOO8sf8kgl_lCNj2-40" style="edgeStyle=orthogonalEdgeStyle;rounded=0;orthogonalLoop=1;jettySize=auto;html=1;exitX=1;exitY=0.25;exitDx=0;exitDy=0;entryX=-0.004;entryY=0.82;entryDx=0;entryDy=0;entryPerimeter=0;" parent="1" source="FkdGA9qikYlc1K1kkweA-1" target="sbDxYOO8sf8kgl_lCNj2-3" edge="1">
          <mxGeometry relative="1" as="geometry">
            <mxPoint x="480" y="703" as="targetPoint" />
            <Array as="points">
              <mxPoint x="390" y="840" />
              <mxPoint x="440" y="840" />
              <mxPoint x="440" y="702" />
            </Array>
          </mxGeometry>
        </mxCell>
        <mxCell id="sbDxYOO8sf8kgl_lCNj2-48" value="各项封装相应数据" style="edgeLabel;html=1;align=center;verticalAlign=middle;resizable=0;points=[];" parent="sbDxYOO8sf8kgl_lCNj2-40" vertex="1" connectable="0">
          <mxGeometry x="-0.2066" y="-1" relative="1" as="geometry">
            <mxPoint x="-1" y="-29" as="offset" />
          </mxGeometry>
        </mxCell>
        <mxCell id="sbDxYOO8sf8kgl_lCNj2-41" style="edgeStyle=orthogonalEdgeStyle;rounded=0;orthogonalLoop=1;jettySize=auto;html=1;entryX=1;entryY=0.5;entryDx=0;entryDy=0;exitX=0.22;exitY=1;exitDx=0;exitDy=0;exitPerimeter=0;" parent="1" source="sbDxYOO8sf8kgl_lCNj2-3" target="FkdGA9qikYlc1K1kkweA-1" edge="1">
          <mxGeometry relative="1" as="geometry">
            <Array as="points">
              <mxPoint x="600" y="880" />
              <mxPoint x="390" y="880" />
            </Array>
          </mxGeometry>
        </mxCell>
        <mxCell id="sbDxYOO8sf8kgl_lCNj2-49" value="各项原始请求数据" style="edgeLabel;html=1;align=center;verticalAlign=middle;resizable=0;points=[];" parent="sbDxYOO8sf8kgl_lCNj2-41" vertex="1" connectable="0">
          <mxGeometry x="-0.0218" y="3" relative="1" as="geometry">
            <mxPoint x="-17" y="-3" as="offset" />
          </mxGeometry>
        </mxCell>
        <mxCell id="sbDxYOO8sf8kgl_lCNj2-43" style="edgeStyle=orthogonalEdgeStyle;rounded=0;orthogonalLoop=1;jettySize=auto;html=1;entryX=0.659;entryY=1;entryDx=0;entryDy=0;entryPerimeter=0;" parent="1" source="sbDxYOO8sf8kgl_lCNj2-7" target="sbDxYOO8sf8kgl_lCNj2-10" edge="1">
          <mxGeometry relative="1" as="geometry" />
        </mxCell>
        <mxCell id="sbDxYOO8sf8kgl_lCNj2-45" value="原始文本" style="edgeLabel;html=1;align=center;verticalAlign=middle;resizable=0;points=[];" parent="sbDxYOO8sf8kgl_lCNj2-43" vertex="1" connectable="0">
          <mxGeometry x="-0.1467" y="-3" relative="1" as="geometry">
            <mxPoint as="offset" />
          </mxGeometry>
        </mxCell>
        <mxCell id="sbDxYOO8sf8kgl_lCNj2-44" style="edgeStyle=orthogonalEdgeStyle;rounded=0;orthogonalLoop=1;jettySize=auto;html=1;" parent="1" source="sbDxYOO8sf8kgl_lCNj2-10" edge="1">
          <mxGeometry relative="1" as="geometry">
            <mxPoint x="160" y="461" as="targetPoint" />
            <Array as="points">
              <mxPoint x="160" y="461" />
            </Array>
          </mxGeometry>
        </mxCell>
        <mxCell id="sbDxYOO8sf8kgl_lCNj2-47" value="脱敏文本" style="edgeLabel;html=1;align=center;verticalAlign=middle;resizable=0;points=[];" parent="sbDxYOO8sf8kgl_lCNj2-44" vertex="1" connectable="0">
          <mxGeometry x="-0.0982" y="2" relative="1" as="geometry">
            <mxPoint as="offset" />
          </mxGeometry>
        </mxCell>
        <mxCell id="FkdGA9qikYlc1K1kkweA-1" value="&lt;font style=&quot;font-size: 30px;&quot;&gt;网络请求模块&lt;/font&gt;" style="rounded=0;whiteSpace=wrap;html=1;" parent="1" vertex="1">
          <mxGeometry x="70" y="800" width="320" height="150" as="geometry" />
        </mxCell>
        <mxCell id="FkdGA9qikYlc1K1kkweA-3" value="" style="endArrow=classic;html=1;rounded=0;exitX=0.303;exitY=1.002;exitDx=0;exitDy=0;exitPerimeter=0;entryX=0.28;entryY=-0.004;entryDx=0;entryDy=0;entryPerimeter=0;" parent="1" source="sbDxYOO8sf8kgl_lCNj2-7" target="FkdGA9qikYlc1K1kkweA-1" edge="1">
          <mxGeometry width="50" height="50" relative="1" as="geometry">
            <mxPoint x="300" y="820" as="sourcePoint" />
            <mxPoint x="350" y="770" as="targetPoint" />
          </mxGeometry>
        </mxCell>
        <mxCell id="FkdGA9qikYlc1K1kkweA-6" value="各项原始相应数据" style="edgeLabel;html=1;align=center;verticalAlign=middle;resizable=0;points=[];" parent="FkdGA9qikYlc1K1kkweA-3" vertex="1" connectable="0">
          <mxGeometry x="-0.3031" y="1" relative="1" as="geometry">
            <mxPoint as="offset" />
          </mxGeometry>
        </mxCell>
        <mxCell id="FkdGA9qikYlc1K1kkweA-4" value="" style="endArrow=classic;html=1;rounded=0;entryX=0.543;entryY=1.009;entryDx=0;entryDy=0;entryPerimeter=0;exitX=0.53;exitY=-0.01;exitDx=0;exitDy=0;exitPerimeter=0;" parent="1" source="FkdGA9qikYlc1K1kkweA-1" target="sbDxYOO8sf8kgl_lCNj2-7" edge="1">
          <mxGeometry width="50" height="50" relative="1" as="geometry">
            <mxPoint x="160" y="760" as="sourcePoint" />
            <mxPoint x="210" y="710" as="targetPoint" />
          </mxGeometry>
        </mxCell>
        <mxCell id="FkdGA9qikYlc1K1kkweA-5" value="各项封装后请求数据" style="edgeLabel;html=1;align=center;verticalAlign=middle;resizable=0;points=[];" parent="FkdGA9qikYlc1K1kkweA-4" vertex="1" connectable="0">
          <mxGeometry x="-0.0605" y="-1" relative="1" as="geometry">
            <mxPoint as="offset" />
          </mxGeometry>
        </mxCell>
      </root>
    </mxGraphModel>
  </diagram>
</mxfile>
